STARTFONT 2.1
FONT -Monotype-Plantin-Bold-I-Normal--14-140-75-75-P-91-iso8859-5
SIZE 14 75 75
FONTBOUNDINGBOX 21 17 -3 -3

STARTPROPERTIES 24
FOUNDRY "Monotype"
FAMILY_NAME "Plantin"
WEIGHT_NAME "Bold"
SLANT "I"
SETWIDTH_NAME "Normal"
ADD_STYLE_NAME ""
PIXEL_SIZE 14
POINT_SIZE 140
RESOLUTION_X 75
RESOLUTION_Y 75
SPACING "P"
AVERAGE_WIDTH 91
CHARSET_REGISTRY "iso8859"
CHARSET_ENCODING "5"
FACE_NAME "Plantin Bold Inclined ISO Latin Cyrillic"
_DEC_DEVICE_FONTNAMES "PS=plantin-bin-latcyrillic"
COPYRIGHT "Copyright (c) 1994 Monotype Typography Ltd."
CAP_HEIGHT 12
X_HEIGHT 8
WEIGHT 10
QUAD_WIDTH 11
DEFAULT_CHAR 160
FONT_DESCENT 4
FONT_ASCENT 14
ENDPROPERTIES

CHARS 191

STARTCHAR space
ENCODING 32
SWIDTH 250 0
DWIDTH 4 0
BBX 0 0 0 0
BITMAP
ENDCHAR

STARTCHAR exclam
ENCODING 33
SWIDTH 365 0
DWIDTH 5 0
BBX 4 11 1 0
BITMAP
10
30
30
30
60
60
60
40
00
C0
C0
ENDCHAR

STARTCHAR quotedbl
ENCODING 34
SWIDTH 552 0
DWIDTH 8 0
BBX 6 5 1 6
BITMAP
CC
CC
CC
88
88
ENDCHAR

STARTCHAR numbersign
ENCODING 35
SWIDTH 500 0
DWIDTH 8 0
BBX 9 11 0 0
BITMAP
1100
1100
1100
7F80
2200
2200
2200
FF00
4400
4400
4400
ENDCHAR

STARTCHAR dollar
ENCODING 36
SWIDTH 542 0
DWIDTH 8 0
BBX 8 12 1 -1
BITMAP
04
1E
2B
69
78
3C
1E
16
A6
E4
78
20
ENDCHAR

STARTCHAR percent
ENCODING 37
SWIDTH 833 0
DWIDTH 12 0
BBX 13 11 0 0
BITMAP
3820
6C40
CC80
CC80
D900
7270
04D8
0998
0998
11B0
20E0
ENDCHAR

STARTCHAR ampersand
ENCODING 38
SWIDTH 958 0
DWIDTH 14 0
BBX 14 11 1 0
BITMAP
1F00
3980
3088
3004
18E4
61FC
C238
C120
E020
7040
1F80
ENDCHAR

STARTCHAR quoteright
ENCODING 39
SWIDTH 365 0
DWIDTH 5 0
BBX 3 5 1 6
BITMAP
60
60
60
40
80
ENDCHAR

STARTCHAR parenleft
ENCODING 40
SWIDTH 437 0
DWIDTH 7 0
BBX 7 14 2 -3
BITMAP
06
18
30
70
60
E0
C0
C0
C0
C0
C0
C0
40
20
ENDCHAR

STARTCHAR parenright
ENCODING 41
SWIDTH 437 0
DWIDTH 7 0
BBX 7 14 -1 -3
BITMAP
08
04
06
06
06
06
06
06
0E
0C
1C
18
30
C0
ENDCHAR

STARTCHAR asterisk
ENCODING 42
SWIDTH 510 0
DWIDTH 8 0
BBX 7 7 1 4
BITMAP
10
92
7C
38
7C
92
10
ENDCHAR

STARTCHAR plus
ENCODING 43
SWIDTH 667 0
DWIDTH 10 0
BBX 7 7 2 1
BITMAP
10
10
10
FE
10
10
10
ENDCHAR

STARTCHAR comma
ENCODING 44
SWIDTH 365 0
DWIDTH 5 0
BBX 3 5 1 -3
BITMAP
60
60
60
40
80
ENDCHAR

STARTCHAR minus
ENCODING 45
SWIDTH 667 0
DWIDTH 10 0
BBX 8 1 1 4
BITMAP
FF
ENDCHAR

STARTCHAR period
ENCODING 46
SWIDTH 292 0
DWIDTH 4 0
BBX 2 2 1 0
BITMAP
C0
C0
ENDCHAR

STARTCHAR slash
ENCODING 47
SWIDTH 281 0
DWIDTH 4 0
BBX 7 11 -1 0
BITMAP
02
06
04
08
18
10
20
60
40
C0
80
ENDCHAR

STARTCHAR zero
ENCODING 48
SWIDTH 542 0
DWIDTH 8 0
BBX 8 11 1 0
BITMAP
1C
32
63
63
C3
C3
C3
C6
C6
4C
38
ENDCHAR

STARTCHAR one
ENCODING 49
SWIDTH 542 0
DWIDTH 8 0
BBX 5 11 2 0
BITMAP
08
38
18
18
30
30
30
60
60
60
F0
ENDCHAR

STARTCHAR two
ENCODING 50
SWIDTH 542 0
DWIDTH 8 0
BBX 8 11 0 0
BITMAP
1E
27
03
03
03
06
0C
10
22
7E
FC
ENDCHAR

STARTCHAR three
ENCODING 51
SWIDTH 542 0
DWIDTH 8 0
BBX 8 11 0 0
BITMAP
1E
27
03
03
06
1C
06
06
06
8C
78
ENDCHAR

STARTCHAR four
ENCODING 52
SWIDTH 542 0
DWIDTH 8 0
BBX 8 11 0 0
BITMAP
03
07
0B
13
26
46
FF
FF
0C
0C
0C
ENDCHAR

STARTCHAR five
ENCODING 53
SWIDTH 542 0
DWIDTH 8 0
BBX 8 11 1 0
BITMAP
1F
1E
10
20
38
7C
0E
06
06
8C
78
ENDCHAR

STARTCHAR six
ENCODING 54
SWIDTH 542 0
DWIDTH 8 0
BBX 8 11 1 0
BITMAP
03
0C
18
30
60
7C
E6
C6
C6
4C
38
ENDCHAR

STARTCHAR seven
ENCODING 55
SWIDTH 542 0
DWIDTH 8 0
BBX 9 11 1 0
BITMAP
3F80
7F00
8200
0600
0C00
0800
1800
3000
3000
6000
6000
ENDCHAR

STARTCHAR eight
ENCODING 56
SWIDTH 542 0
DWIDTH 8 0
BBX 8 11 1 0
BITMAP
1E
33
31
31
1A
3C
4C
86
86
C4
78
ENDCHAR

STARTCHAR nine
ENCODING 57
SWIDTH 542 0
DWIDTH 8 0
BBX 8 11 1 0
BITMAP
1C
32
63
63
67
3E
06
0C
18
30
C0
ENDCHAR

STARTCHAR colon
ENCODING 58
SWIDTH 365 0
DWIDTH 5 0
BBX 3 7 1 0
BITMAP
60
60
00
00
00
C0
C0
ENDCHAR

STARTCHAR semicolon
ENCODING 59
SWIDTH 365 0
DWIDTH 5 0
BBX 4 10 0 -3
BITMAP
30
30
00
00
00
60
60
60
40
80
ENDCHAR

STARTCHAR less
ENCODING 60
SWIDTH 667 0
DWIDTH 10 0
BBX 8 7 1 1
BITMAP
01
0F
3C
E0
3C
0F
01
ENDCHAR

STARTCHAR equal
ENCODING 61
SWIDTH 667 0
DWIDTH 10 0
BBX 8 5 1 2
BITMAP
FF
00
00
00
FF
ENDCHAR

STARTCHAR greater
ENCODING 62
SWIDTH 667 0
DWIDTH 10 0
BBX 8 7 1 1
BITMAP
80
F0
3C
07
3C
F0
80
ENDCHAR

STARTCHAR question
ENCODING 63
SWIDTH 510 0
DWIDTH 8 0
BBX 6 11 1 0
BITMAP
38
6C
0C
0C
1C
78
70
40
00
C0
C0
ENDCHAR

STARTCHAR at
ENCODING 64
SWIDTH 833 0
DWIDTH 12 0
BBX 12 14 0 -3
BITMAP
07C0
1820
2010
4690
4D90
4D90
9990
9910
9B20
9F60
5990
4020
30C0
0F00
ENDCHAR

STARTCHAR A
ENCODING 65
SWIDTH 708 0
DWIDTH 11 0
BBX 11 11 -1 0
BITMAP
0040
00C0
01C0
02C0
04C0
04C0
08C0
1FC0
20C0
40C0
E1E0
ENDCHAR

STARTCHAR B
ENCODING 66
SWIDTH 750 0
DWIDTH 11 0
BBX 10 11 0 0
BITMAP
3F00
1980
18C0
18C0
3180
3F00
3180
60C0
60C0
6180
FF00
ENDCHAR

STARTCHAR C
ENCODING 67
SWIDTH 750 0
DWIDTH 11 0
BBX 11 11 1 0
BITMAP
0FE0
3860
6040
6000
C000
C000
C000
C000
6080
7180
1F00
ENDCHAR

STARTCHAR D
ENCODING 68
SWIDTH 802 0
DWIDTH 12 0
BBX 11 11 0 0
BITMAP
3F00
19C0
18C0
1860
3060
3060
3060
6060
60C0
6180
FE00
ENDCHAR

STARTCHAR E
ENCODING 69
SWIDTH 740 0
DWIDTH 11 0
BBX 12 11 0 0
BITMAP
3FF0
1820
1820
1800
3040
3F80
3080
6000
6040
60C0
FF80
ENDCHAR

STARTCHAR F
ENCODING 70
SWIDTH 667 0
DWIDTH 10 0
BBX 11 11 0 0
BITMAP
3FE0
1840
1840
1800
3080
3F00
3100
6000
6000
6000
F000
ENDCHAR

STARTCHAR G
ENCODING 71
SWIDTH 833 0
DWIDTH 12 0
BBX 11 11 1 0
BITMAP
0FE0
3860
6040
6000
C000
C000
C1E0
C0C0
60C0
7180
1F00
ENDCHAR

STARTCHAR H
ENCODING 72
SWIDTH 844 0
DWIDTH 13 0
BBX 13 11 0 0
BITMAP
3C78
1830
1830
1830
3060
3FE0
3060
60C0
60C0
60C0
F1E0
ENDCHAR

STARTCHAR I
ENCODING 73
SWIDTH 417 0
DWIDTH 6 0
BBX 6 11 0 0
BITMAP
3C
18
18
18
30
30
30
60
60
60
F0
ENDCHAR

STARTCHAR J
ENCODING 74
SWIDTH 396 0
DWIDTH 6 0
BBX 9 14 -3 -3
BITMAP
0780
0300
0300
0300
0600
0600
0600
0600
0C00
0C00
0C00
9800
D800
7000
ENDCHAR

STARTCHAR K
ENCODING 75
SWIDTH 740 0
DWIDTH 11 0
BBX 12 11 0 0
BITMAP
3CF0
1860
1840
1880
3100
3600
3E00
6300
6180
60C0
F0E0
ENDCHAR

STARTCHAR L
ENCODING 76
SWIDTH 667 0
DWIDTH 10 0
BBX 10 11 0 0
BITMAP
3C00
1800
1800
1800
3000
3000
3000
6000
6040
60C0
FF80
ENDCHAR

STARTCHAR M
ENCODING 77
SWIDTH 979 0
DWIDTH 15 0
BBX 15 11 0 0
BITMAP
1C0E
0C0C
0C1C
162C
162C
264C
2698
2698
4718
4618
E43C
ENDCHAR

STARTCHAR N
ENCODING 78
SWIDTH 812 0
DWIDTH 12 0
BBX 13 11 0 0
BITMAP
3038
1810
1810
1C20
2C20
2620
2640
2340
41C0
4180
E080
ENDCHAR

STARTCHAR O
ENCODING 79
SWIDTH 854 0
DWIDTH 13 0
BBX 11 11 1 0
BITMAP
0F80
38C0
6060
6060
C060
C060
C060
C0C0
C0C0
6380
3E00
ENDCHAR

STARTCHAR P
ENCODING 80
SWIDTH 677 0
DWIDTH 10 0
BBX 11 11 0 0
BITMAP
3F80
18C0
1860
1860
3060
30C0
3780
6000
6000
6000
F000
ENDCHAR

STARTCHAR Q
ENCODING 81
SWIDTH 854 0
DWIDTH 13 0
BBX 11 14 1 -3
BITMAP
0F80
38C0
6060
6060
C060
C060
C060
C0C0
C0C0
6380
3E00
0C00
0600
03C0
ENDCHAR

STARTCHAR R
ENCODING 82
SWIDTH 781 0
DWIDTH 12 0
BBX 11 11 0 0
BITMAP
3F80
18C0
1860
1860
30C0
3F80
3600
6300
6300
6180
F1C0
ENDCHAR

STARTCHAR S
ENCODING 83
SWIDTH 625 0
DWIDTH 9 0
BBX 8 11 1 0
BITMAP
3E
73
61
70
38
1C
0E
06
86
CE
7C
ENDCHAR

STARTCHAR T
ENCODING 84
SWIDTH 729 0
DWIDTH 11 0
BBX 11 11 1 0
BITMAP
7FE0
4C40
8C40
0C00
1800
1800
1800
3000
3000
3000
7800
ENDCHAR

STARTCHAR U
ENCODING 85
SWIDTH 792 0
DWIDTH 12 0
BBX 12 11 1 0
BITMAP
7870
3020
3020
3020
6040
6040
6040
C080
C080
E100
7E00
ENDCHAR

STARTCHAR V
ENCODING 86
SWIDTH 719 0
DWIDTH 11 0
BBX 11 11 1 0
BITMAP
F0E0
6040
6080
6100
6100
6200
6400
6800
6800
7000
6000
ENDCHAR

STARTCHAR W
ENCODING 87
SWIDTH 969 0
DWIDTH 15 0
BBX 16 11 0 0
BITMAP
F3E7
61C2
6184
6188
6388
6390
65A0
69A0
69C0
71C0
6180
ENDCHAR

STARTCHAR X
ENCODING 88
SWIDTH 771 0
DWIDTH 12 0
BBX 11 11 1 0
BITMAP
78E0
3040
1880
1B00
0E00
0E00
0E00
1300
2300
4180
E1C0
ENDCHAR

STARTCHAR Y
ENCODING 89
SWIDTH 677 0
DWIDTH 10 0
BBX 10 11 1 0
BITMAP
F1C0
6080
3100
3200
1A00
1C00
1800
1800
3000
3000
7800
ENDCHAR

STARTCHAR Z
ENCODING 90
SWIDTH 687 0
DWIDTH 10 0
BBX 11 11 0 0
BITMAP
3FE0
60C0
4180
0300
0600
0600
0C00
1800
3040
60C0
FF80
ENDCHAR

STARTCHAR bracketleft
ENCODING 91
SWIDTH 385 0
DWIDTH 6 0
BBX 7 14 1 -3
BITMAP
1E
18
18
30
30
30
30
60
60
60
C0
C0
C0
F0
ENDCHAR

STARTCHAR backslash
ENCODING 92
SWIDTH 281 0
DWIDTH 4 0
BBX 3 11 1 0
BITMAP
80
C0
C0
C0
C0
40
60
60
60
60
20
ENDCHAR

STARTCHAR bracketright
ENCODING 93
SWIDTH 385 0
DWIDTH 6 0
BBX 7 14 -1 -3
BITMAP
1E
06
06
06
0C
0C
0C
18
18
18
18
30
30
F0
ENDCHAR

STARTCHAR asciicircum
ENCODING 94
SWIDTH 573 0
DWIDTH 9 0
BBX 7 5 1 6
BITMAP
10
38
28
44
C6
ENDCHAR

STARTCHAR underscore
ENCODING 95
SWIDTH 500 0
DWIDTH 8 0
BBX 8 1 0 -3
BITMAP
FF
ENDCHAR

STARTCHAR quoteleft
ENCODING 96
SWIDTH 365 0
DWIDTH 5 0
BBX 3 5 2 6
BITMAP
20
40
C0
C0
C0
ENDCHAR

STARTCHAR a
ENCODING 97
SWIDTH 594 0
DWIDTH 9 0
BBX 8 7 1 0
BITMAP
1B
26
66
C6
CC
DD
6E
ENDCHAR

STARTCHAR b
ENCODING 98
SWIDTH 615 0
DWIDTH 9 0
BBX 8 11 1 0
BITMAP
10
70
30
30
6E
73
63
C3
C3
C6
78
ENDCHAR

STARTCHAR c
ENCODING 99
SWIDTH 500 0
DWIDTH 8 0
BBX 7 7 1 0
BITMAP
3C
66
C2
C0
C0
E4
78
ENDCHAR

STARTCHAR d
ENCODING 100
SWIDTH 625 0
DWIDTH 9 0
BBX 8 11 1 0
BITMAP
01
07
03
03
36
6E
C6
C6
CC
DD
6E
ENDCHAR

STARTCHAR e
ENCODING 101
SWIDTH 510 0
DWIDTH 8 0
BBX 7 7 1 0
BITMAP
3C
46
CC
F8
C0
C4
78
ENDCHAR

STARTCHAR f
ENCODING 102
SWIDTH 333 0
DWIDTH 5 0
BBX 10 14 -3 -3
BITMAP
01C0
0340
0300
0600
0F00
0600
0600
0C00
0C00
0C00
0C00
1800
D800
7000
ENDCHAR

STARTCHAR g
ENCODING 103
SWIDTH 594 0
DWIDTH 9 0
BBX 10 10 0 -3
BITMAP
0EC0
1180
3180
3300
1E00
2000
7E00
7F00
C200
7C00
ENDCHAR

STARTCHAR h
ENCODING 104
SWIDTH 625 0
DWIDTH 9 0
BBX 9 11 1 0
BITMAP
1000
7000
3000
3000
6E00
7300
6300
6300
C600
C680
C300
ENDCHAR

STARTCHAR i
ENCODING 105
SWIDTH 333 0
DWIDTH 5 0
BBX 5 11 0 0
BITMAP
18
18
00
00
60
B0
30
60
60
68
30
ENDCHAR

STARTCHAR j
ENCODING 106
SWIDTH 323 0
DWIDTH 5 0
BBX 7 14 -1 -3
BITMAP
06
06
00
00
18
2C
0C
0C
18
18
18
30
B0
60
ENDCHAR

STARTCHAR k
ENCODING 107
SWIDTH 625 0
DWIDTH 9 0
BBX 8 11 1 0
BITMAP
10
70
30
30
6E
73
63
7E
CC
CD
C6
ENDCHAR

STARTCHAR l
ENCODING 108
SWIDTH 302 0
DWIDTH 5 0
BBX 4 11 1 0
BITMAP
10
70
30
30
60
60
60
C0
C0
D0
60
ENDCHAR

STARTCHAR m
ENCODING 109
SWIDTH 1000 0
DWIDTH 15 0
BBX 15 7 0 0
BITMAP
6738
B9CC
318C
318C
6318
631A
630C
ENDCHAR

STARTCHAR n
ENCODING 110
SWIDTH 635 0
DWIDTH 10 0
BBX 9 7 1 0
BITMAP
6E00
B300
3300
3300
6600
6680
6300
ENDCHAR

STARTCHAR o
ENCODING 111
SWIDTH 573 0
DWIDTH 9 0
BBX 8 7 1 0
BITMAP
1C
62
C3
C3
C3
46
38
ENDCHAR

STARTCHAR p
ENCODING 112
SWIDTH 615 0
DWIDTH 9 0
BBX 9 11 0 -3
BITMAP
1800
3F00
5980
1980
3180
3180
3300
6E00
6000
6000
F000
ENDCHAR

STARTCHAR q
ENCODING 113
SWIDTH 594 0
DWIDTH 9 0
BBX 8 10 1 -3
BITMAP
1D
63
63
C6
C6
C6
7C
0C
0C
1E
ENDCHAR

STARTCHAR r
ENCODING 114
SWIDTH 479 0
DWIDTH 7 0
BBX 8 7 0 0
BITMAP
63
B5
38
30
60
60
60
ENDCHAR

STARTCHAR s
ENCODING 115
SWIDTH 490 0
DWIDTH 7 0
BBX 7 7 0 0
BITMAP
3C
66
70
38
1C
CC
78
ENDCHAR

STARTCHAR t
ENCODING 116
SWIDTH 365 0
DWIDTH 5 0
BBX 5 9 1 0
BITMAP
10
30
F8
60
60
C0
C0
D0
60
ENDCHAR

STARTCHAR u
ENCODING 117
SWIDTH 635 0
DWIDTH 10 0
BBX 9 7 1 0
BITMAP
6300
B300
3300
6600
6600
6680
3B00
ENDCHAR

STARTCHAR v
ENCODING 118
SWIDTH 573 0
DWIDTH 9 0
BBX 9 7 0 0
BITMAP
7900
9980
1880
3080
3100
3200
1C00
ENDCHAR

STARTCHAR w
ENCODING 119
SWIDTH 854 0
DWIDTH 13 0
BBX 13 7 0 0
BITMAP
7890
9998
1988
3188
3188
3290
1C60
ENDCHAR

STARTCHAR x
ENCODING 120
SWIDTH 615 0
DWIDTH 9 0
BBX 9 7 0 0
BITMAP
3180
5A80
0C00
0C00
0C00
9680
E300
ENDCHAR

STARTCHAR y
ENCODING 121
SWIDTH 552 0
DWIDTH 8 0
BBX 8 10 0 -3
BITMAP
32
5B
19
0D
0E
06
04
08
D0
60
ENDCHAR

STARTCHAR z
ENCODING 122
SWIDTH 500 0
DWIDTH 7 0
BBX 8 7 0 0
BITMAP
39
7E
44
18
22
7E
BC
ENDCHAR

STARTCHAR braceleft
ENCODING 123
SWIDTH 396 0
DWIDTH 6 0
BBX 6 14 2 -3
BITMAP
1C
30
30
30
30
60
80
80
40
C0
C0
C0
40
30
ENDCHAR

STARTCHAR bar
ENCODING 124
SWIDTH 219 0
DWIDTH 3 0
BBX 1 14 1 -3
BITMAP
80
80
80
80
80
80
80
80
80
80
80
80
80
80
ENDCHAR

STARTCHAR braceright
ENCODING 125
SWIDTH 396 0
DWIDTH 6 0
BBX 6 14 0 -3
BITMAP
30
08
0C
0C
0C
08
04
04
18
30
30
30
30
E0
ENDCHAR

STARTCHAR asciitilde
ENCODING 126
SWIDTH 573 0
DWIDTH 9 0
BBX 7 3 1 3
BITMAP
62
BA
9C
ENDCHAR

STARTCHAR space
ENCODING 160
SWIDTH 250 0
DWIDTH 5 0
BBX 0 0 0 0
BITMAP
ENDCHAR

STARTCHAR afii10023
ENCODING 161
SWIDTH 740 0
DWIDTH 11 0
BBX 12 14 0 0
BITMAP
0660
0660
0000
3FF0
1820
1820
1800
3040
3F80
3080
6000
6040
60C0
FF80
ENDCHAR

STARTCHAR afii10051
ENCODING 162
SWIDTH 865 0
DWIDTH 13 0
BBX 12 11 0 0
BITMAP
7FF0
4620
8620
0600
0DE0
0E70
0C30
1830
1930
1960
3CC0
ENDCHAR

STARTCHAR afii10052
ENCODING 163
SWIDTH 656 0
DWIDTH 9 0
BBX 10 14 0 0
BITMAP
0300
0600
0000
3FC0
18C0
1880
1800
3000
3000
3000
6000
6000
6000
F000
ENDCHAR

STARTCHAR afii10053
ENCODING 164
SWIDTH 771 0
DWIDTH 12 0
BBX 11 11 1 0
BITMAP
07C0
1C60
3020
6000
6000
FE00
C000
C000
6080
7180
1E00
ENDCHAR

STARTCHAR afii10054
ENCODING 165
SWIDTH 625 0
DWIDTH 9 0
BBX 8 11 1 0
BITMAP
3E
73
61
70
38
1C
0E
06
86
CE
7C
ENDCHAR

STARTCHAR afii10055
ENCODING 166
SWIDTH 417 0
DWIDTH 6 0
BBX 6 11 0 0
BITMAP
3C
18
18
18
30
30
30
60
60
60
F0
ENDCHAR

STARTCHAR afii10056
ENCODING 167
SWIDTH 417 0
DWIDTH 6 0
BBX 8 14 0 0
BITMAP
33
33
00
3C
18
18
18
30
30
30
60
60
60
F0
ENDCHAR

STARTCHAR afii10057
ENCODING 168
SWIDTH 396 0
DWIDTH 6 0
BBX 9 14 -3 -3
BITMAP
0780
0300
0300
0300
0600
0600
0600
0600
0C00
0C00
0C00
9800
D800
7000
ENDCHAR

STARTCHAR afii10058
ENCODING 169
SWIDTH 1099 0
DWIDTH 16 0
BBX 16 11 -1 0
BITMAP
0FF0
0460
0460
0460
08C0
08FC
08C6
0983
1183
9186
63FC
ENDCHAR

STARTCHAR afii10059
ENCODING 170
SWIDTH 1125 0
DWIDTH 17 0
BBX 16 11 0 0
BITMAP
3CF0
1860
1860
1860
30C0
3FFC
30C6
6183
6183
6186
F3FC
ENDCHAR

STARTCHAR afii10060
ENCODING 171
SWIDTH 906 0
DWIDTH 13 0
BBX 12 11 0 0
BITMAP
7FF0
4620
8620
0600
0DE0
0E30
0C30
1830
1860
1860
3CF0
ENDCHAR

STARTCHAR afii10061
ENCODING 172
SWIDTH 723 0
DWIDTH 11 0
BBX 12 14 0 0
BITMAP
0180
0300
0000
3C70
1890
1880
1900
3100
3600
3E00
6300
6180
60C0
F0E0
ENDCHAR

STARTCHAR hyphen
ENCODING 173
SWIDTH 458 0
DWIDTH 7 0
BBX 5 1 1 3
BITMAP
F8
ENDCHAR

STARTCHAR afii10062
ENCODING 174
SWIDTH 719 0
DWIDTH 10 0
BBX 10 14 1 0
BITMAP
1B00
0E00
0000
F1C0
6080
6100
6100
3200
3200
3400
1C00
9800
D000
6000
ENDCHAR

STARTCHAR afii10145
ENCODING 175
SWIDTH 844 0
DWIDTH 13 0
BBX 13 13 0 -2
BITMAP
3C78
1830
1830
1830
3060
3060
3060
60C0
60C0
60C0
FFE0
0C00
0C00
ENDCHAR

STARTCHAR afii10017
ENCODING 176
SWIDTH 708 0
DWIDTH 11 0
BBX 11 11 -1 0
BITMAP
0040
00C0
01C0
02C0
04C0
04C0
08C0
1FC0
20C0
40C0
E1E0
ENDCHAR

STARTCHAR afii10018
ENCODING 177
SWIDTH 729 0
DWIDTH 11 0
BBX 11 11 0 0
BITMAP
3FE0
1860
1840
1800
3000
3F00
3180
60C0
60C0
6180
FF00
ENDCHAR

STARTCHAR afii10019
ENCODING 178
SWIDTH 750 0
DWIDTH 11 0
BBX 10 11 0 0
BITMAP
3F00
1980
18C0
18C0
3180
3F00
3180
60C0
60C0
6180
FF00
ENDCHAR

STARTCHAR afii10020
ENCODING 179
SWIDTH 633 0
DWIDTH 9 0
BBX 10 11 0 0
BITMAP
3FC0
18C0
1880
1800
3000
3000
3000
6000
6000
6000
F000
ENDCHAR

STARTCHAR afii10021
ENCODING 180
SWIDTH 719 0
DWIDTH 12 0
BBX 12 13 0 -2
BITMAP
1FF0
0860
0860
0860
10C0
10C0
10C0
2180
2180
4180
FFC0
C0C0
8080
ENDCHAR

STARTCHAR afii10022
ENCODING 181
SWIDTH 740 0
DWIDTH 11 0
BBX 12 11 0 0
BITMAP
3FF0
1820
1820
1800
3040
3F80
3080
6000
6040
60C0
FF80
ENDCHAR

STARTCHAR afii10024
ENCODING 182
SWIDTH 915 0
DWIDTH 14 0
BBX 16 11 -1 0
BITMAP
30F3
2865
0464
04C4
07F8
0CD0
1998
3198
330C
630C
E78E
ENDCHAR

STARTCHAR afii10025
ENCODING 183
SWIDTH 656 0
DWIDTH 10 0
BBX 9 11 0 0
BITMAP
1F00
6180
4180
0180
0300
1E00
0300
0180
8180
C300
3C00
ENDCHAR

STARTCHAR afii10026
ENCODING 184
SWIDTH 844 0
DWIDTH 13 0
BBX 13 11 0 0
BITMAP
3C78
1830
1870
18B0
3160
3260
3460
68C0
70C0
60C0
F1E0
ENDCHAR

STARTCHAR afii10027
ENCODING 185
SWIDTH 844 0
DWIDTH 13 0
BBX 13 14 0 0
BITMAP
06C0
0380
0000
3C78
1830
1870
18B0
3160
3260
3460
68C0
70C0
60C0
F1E0
ENDCHAR

STARTCHAR afii10028
ENCODING 186
SWIDTH 723 0
DWIDTH 11 0
BBX 12 11 0 0
BITMAP
3C70
1890
1880
1900
3100
3600
3E00
6300
6180
60C0
F0E0
ENDCHAR

STARTCHAR afii10029
ENCODING 187
SWIDTH 835 0
DWIDTH 11 0
BBX 12 11 -1 0
BITMAP
0FF0
0460
0460
0460
08C0
08C0
08C0
0980
1180
9180
63C0
ENDCHAR

STARTCHAR afii10030
ENCODING 188
SWIDTH 979 0
DWIDTH 15 0
BBX 15 11 0 0
BITMAP
1C0E
0C0C
0C1C
162C
162C
264C
2698
2698
4718
4618
E43C
ENDCHAR

STARTCHAR afii10031
ENCODING 189
SWIDTH 844 0
DWIDTH 13 0
BBX 13 11 0 0
BITMAP
3C78
1830
1830
1830
3060
3FE0
3060
60C0
60C0
60C0
F1E0
ENDCHAR

STARTCHAR afii10032
ENCODING 190
SWIDTH 854 0
DWIDTH 13 0
BBX 11 11 1 0
BITMAP
0F80
38C0
6060
6060
C060
C060
C060
C0C0
C0C0
6380
3E00
ENDCHAR

STARTCHAR afii10033
ENCODING 191
SWIDTH 854 0
DWIDTH 13 0
BBX 13 11 0 0
BITMAP
3FF8
1830
1830
1830
3060
3060
3060
60C0
60C0
60C0
F1E0
ENDCHAR

STARTCHAR afii10034
ENCODING 192
SWIDTH 677 0
DWIDTH 10 0
BBX 11 11 0 0
BITMAP
3F80
18C0
1860
1860
3060
30C0
3780
6000
6000
6000
F000
ENDCHAR

STARTCHAR afii10035
ENCODING 193
SWIDTH 750 0
DWIDTH 11 0
BBX 11 11 1 0
BITMAP
0FE0
3860
6040
6000
C000
C000
C000
C000
6080
7180
1F00
ENDCHAR

STARTCHAR afii10036
ENCODING 194
SWIDTH 729 0
DWIDTH 11 0
BBX 11 11 1 0
BITMAP
7FE0
4C40
8C40
0C00
1800
1800
1800
3000
3000
3000
7800
ENDCHAR

STARTCHAR afii10037
ENCODING 195
SWIDTH 719 0
DWIDTH 10 0
BBX 10 11 1 0
BITMAP
F1C0
6080
6100
6100
3200
3200
3400
1C00
9800
D000
6000
ENDCHAR

STARTCHAR afii10038
ENCODING 196
SWIDTH 1021 0
DWIDTH 15 0
BBX 13 11 1 0
BITMAP
0780
0300
3FF0
6318
C318
C318
C618
C630
7FE0
0600
0F00
ENDCHAR

STARTCHAR afii10039
ENCODING 197
SWIDTH 771 0
DWIDTH 12 0
BBX 11 11 1 0
BITMAP
78E0
3040
1880
1B00
0E00
0E00
0E00
1300
2300
4180
E1C0
ENDCHAR

STARTCHAR afii10040
ENCODING 198
SWIDTH 844 0
DWIDTH 13 0
BBX 13 13 0 -2
BITMAP
3C78
1830
1830
1830
3060
3060
3060
60C0
60C0
60C0
FFE0
0060
0040
ENDCHAR

STARTCHAR afii10041
ENCODING 199
SWIDTH 802 0
DWIDTH 11 0
BBX 10 11 1 0
BITMAP
F3C0
6180
6180
6180
C300
C300
7F00
0600
0600
0600
0F00
ENDCHAR

STARTCHAR afii10042
ENCODING 200
SWIDTH 1083 0
DWIDTH 16 0
BBX 16 11 0 0
BITMAP
3DEF
18C6
18C6
18C6
318C
318C
318C
6318
6318
6318
FFFC
ENDCHAR

STARTCHAR afii10043
ENCODING 201
SWIDTH 1083 0
DWIDTH 16 0
BBX 16 13 0 -2
BITMAP
3DEF
18C6
18C6
18C6
318C
318C
318C
6318
6318
6318
FFFC
000C
0008
ENDCHAR

STARTCHAR afii10044
ENCODING 202
SWIDTH 823 0
DWIDTH 12 0
BBX 11 11 0 0
BITMAP
7E00
4C00
8C00
0C00
1800
1F80
18C0
3060
3060
30C0
7F80
ENDCHAR

STARTCHAR afii10045
ENCODING 203
SWIDTH 1050 0
DWIDTH 16 0
BBX 16 11 0 0
BITMAP
3C0F
1806
1806
1806
300C
3F0C
318C
60D8
60D8
6198
FF3C
ENDCHAR

STARTCHAR afii10046
ENCODING 204
SWIDTH 719 0
DWIDTH 11 0
BBX 10 11 0 0
BITMAP
3C00
1800
1800
1800
3000
3F00
3180
60C0
60C0
6180
FF00
ENDCHAR

STARTCHAR afii10047
ENCODING 205
SWIDTH 777 0
DWIDTH 12 0
BBX 11 11 1 0
BITMAP
0F00
31C0
20C0
0060
0060
0FE0
00C0
00C0
8180
C700
7C00
ENDCHAR

STARTCHAR afii10048
ENCODING 206
SWIDTH 1250 0
DWIDTH 19 0
BBX 18 11 0 0
BITMAP
3C0000
181F00
187180
18C0C0
30C0C0
3F80C0
3180C0
618180
618180
60C700
F07C00
ENDCHAR

STARTCHAR afii10049
ENCODING 207
SWIDTH 792 0
DWIDTH 12 0
BBX 13 11 -1 0
BITMAP
03F8
0C30
1830
1830
0C60
07E0
0C60
18C0
30C0
60C0
E1E0
ENDCHAR

STARTCHAR afii10065
ENCODING 208
SWIDTH 585 0
DWIDTH 9 0
BBX 8 7 1 0
BITMAP
1B
26
66
CC
CC
DD
6E
ENDCHAR

STARTCHAR afii10066
ENCODING 209
SWIDTH 573 0
DWIDTH 8 0
BBX 8 11 1 0
BITMAP
01
0E
38
60
5C
A6
C6
C6
C6
4C
38
ENDCHAR

STARTCHAR afii10067
ENCODING 210
SWIDTH 514 0
DWIDTH 7 0
BBX 6 7 1 0
BITMAP
38
64
CC
F8
CC
4C
38
ENDCHAR

STARTCHAR afii10068
ENCODING 211
SWIDTH 378 0
DWIDTH 5 0
BBX 4 7 1 0
BITMAP
60
B0
30
60
C0
D0
60
ENDCHAR

STARTCHAR afii10069
ENCODING 212
SWIDTH 568 0
DWIDTH 8 0
BBX 7 11 1 0
BITMAP
30
08
0C
06
3E
66
C6
C6
C4
D8
70
ENDCHAR

STARTCHAR afii10070
ENCODING 213
SWIDTH 517 0
DWIDTH 8 0
BBX 7 7 1 0
BITMAP
3C
46
CC
F8
C0
C4
78
ENDCHAR

STARTCHAR afii10072
ENCODING 214
SWIDTH 1083 0
DWIDTH 16 0
BBX 16 7 0 0
BITMAP
38C7
4CD9
0DB0
0FF0
0DB0
9B32
F31C
ENDCHAR

STARTCHAR afii10073
ENCODING 215
SWIDTH 407 0
DWIDTH 7 0
BBX 6 7 1 0
BITMAP
38
4C
08
30
18
98
F0
ENDCHAR

STARTCHAR afii10074
ENCODING 216
SWIDTH 635 0
DWIDTH 10 0
BBX 9 7 1 0
BITMAP
6300
B300
3300
6600
6600
6680
3B00
ENDCHAR

STARTCHAR afii10075
ENCODING 217
SWIDTH 635 0
DWIDTH 10 0
BBX 9 10 1 0
BITMAP
3600
1C00
0000
6300
B300
3300
6600
6600
6680
3B00
ENDCHAR

STARTCHAR afii10076
ENCODING 218
SWIDTH 563 0
DWIDTH 8 0
BBX 9 7 0 0
BITMAP
7980
3280
3400
3C00
6600
6600
F300
ENDCHAR

STARTCHAR afii10077
ENCODING 219
SWIDTH 594 0
DWIDTH 9 0
BBX 9 7 0 0
BITMAP
0380
0700
0B00
1300
1600
A680
4300
ENDCHAR

STARTCHAR afii10078
ENCODING 220
SWIDTH 729 0
DWIDTH 11 0
BBX 12 7 0 0
BITMAP
0C60
0CE0
1D60
1D60
2EC0
ACD0
4860
ENDCHAR

STARTCHAR afii10079
ENCODING 221
SWIDTH 635 0
DWIDTH 10 0
BBX 9 7 1 0
BITMAP
7B80
3300
3300
3F00
6600
6600
F700
ENDCHAR

STARTCHAR afii10080
ENCODING 222
SWIDTH 573 0
DWIDTH 9 0
BBX 8 7 1 0
BITMAP
1C
62
C3
C3
C3
46
38
ENDCHAR

STARTCHAR afii10081
ENCODING 223
SWIDTH 635 0
DWIDTH 10 0
BBX 9 7 1 0
BITMAP
6E00
B300
3300
3300
6600
6680
6300
ENDCHAR

STARTCHAR afii10082
ENCODING 224
SWIDTH 612 0
DWIDTH 9 0
BBX 9 11 0 -3
BITMAP
1800
3F00
5980
1980
3180
3180
3300
6E00
6000
6000
F000
ENDCHAR

STARTCHAR afii10083
ENCODING 225
SWIDTH 506 0
DWIDTH 8 0
BBX 7 7 1 0
BITMAP
3C
66
C2
C0
C0
E4
78
ENDCHAR

STARTCHAR afii10084
ENCODING 226
SWIDTH 1000 0
DWIDTH 15 0
BBX 15 7 1 0
BITMAP
6738
B9CC
318C
318C
6318
631A
630C
ENDCHAR

STARTCHAR afii10085
ENCODING 227
SWIDTH 552 0
DWIDTH 8 0
BBX 8 10 0 -3
BITMAP
32
5B
19
0D
0E
06
04
08
D0
60
ENDCHAR

STARTCHAR afii10086
ENCODING 228
SWIDTH 781 0
DWIDTH 12 0
BBX 11 14 1 -3
BITMAP
00E0
0120
0300
0300
37C0
6E60
C660
CC60
CC60
DEC0
6D80
1800
5800
7000
ENDCHAR

STARTCHAR afii10087
ENCODING 229
SWIDTH 615 0
DWIDTH 9 0
BBX 9 7 0 0
BITMAP
3180
5A80
0C00
0C00
0C00
9680
E300
ENDCHAR

STARTCHAR afii10088
ENCODING 230
SWIDTH 625 0
DWIDTH 10 0
BBX 9 9 1 -2
BITMAP
6300
B300
3300
6600
6600
6680
3B00
0200
0600
ENDCHAR

STARTCHAR afii10089
ENCODING 231
SWIDTH 615 0
DWIDTH 9 0
BBX 8 7 1 0
BITMAP
EF
66
C6
C4
7C
0D
0E
ENDCHAR

STARTCHAR afii10090
ENCODING 232
SWIDTH 1000 0
DWIDTH 15 0
BBX 15 7 1 0
BITMAP
618C
B18C
318C
3318
6738
6B5A
318C
ENDCHAR

STARTCHAR afii10091
ENCODING 233
SWIDTH 1000 0
DWIDTH 15 0
BBX 15 9 1 -2
BITMAP
618C
B18C
318C
3318
6738
6B5A
318C
0008
0018
ENDCHAR

STARTCHAR afii10092
ENCODING 234
SWIDTH 521 0
DWIDTH 7 0
BBX 7 7 0 0
BITMAP
78
98
1C
36
66
64
38
ENDCHAR

STARTCHAR afii10093
ENCODING 235
SWIDTH 781 0
DWIDTH 12 0
BBX 11 7 1 0
BITMAP
E000
61C0
78C0
6CC0
CD80
C9A0
70C0
ENDCHAR

STARTCHAR afii10094
ENCODING 236
SWIDTH 510 0
DWIDTH 7 0
BBX 6 7 1 0
BITMAP
E0
60
78
6C
CC
C8
70
ENDCHAR

STARTCHAR afii10095
ENCODING 237
SWIDTH 483 0
DWIDTH 7 0
BBX 7 7 0 0
BITMAP
38
44
06
3E
06
8C
78
ENDCHAR

STARTCHAR afii10096
ENCODING 238
SWIDTH 867 0
DWIDTH 13 0
BBX 13 7 0 0
BITMAP
78E0
3310
3618
3E18
6618
6230
F1C0
ENDCHAR

STARTCHAR afii10097
ENCODING 239
SWIDTH 603 0
DWIDTH 9 0
BBX 9 7 0 0
BITMAP
1F00
3300
3300
1E00
2600
A680
C700
ENDCHAR

STARTCHAR afii61352
ENCODING 240
SWIDTH 1135 0
DWIDTH 16 0
BBX 16 11 0 0
BITMAP
1C18
0C2C
0624
0620
0646
0B4B
0B5B
099A
918C
D180
60BE
ENDCHAR

STARTCHAR afii10071
ENCODING 241
SWIDTH 517 0
DWIDTH 8 0
BBX 7 10 1 0
BITMAP
66
66
00
3C
46
CC
F8
C0
C4
78
ENDCHAR

STARTCHAR afii10099
ENCODING 242
SWIDTH 631 0
DWIDTH 9 0
BBX 8 14 1 -3
BITMAP
10
7E
30
30
6E
73
63
63
C3
C6
C6
06
04
08
ENDCHAR

STARTCHAR afii10100
ENCODING 243
SWIDTH 512 0
DWIDTH 8 0
BBX 8 10 0 0
BITMAP
06
0C
00
7F
31
30
30
60
60
F0
ENDCHAR

STARTCHAR afii10101
ENCODING 244
SWIDTH 547 0
DWIDTH 8 0
BBX 7 7 1 0
BITMAP
3C
62
C0
F8
C0
C4
78
ENDCHAR

STARTCHAR afii10102
ENCODING 245
SWIDTH 490 0
DWIDTH 7 0
BBX 7 7 0 0
BITMAP
3C
66
70
38
1C
CC
78
ENDCHAR

STARTCHAR afii10103
ENCODING 246
SWIDTH 333 0
DWIDTH 5 0
BBX 5 11 0 0
BITMAP
18
18
00
00
60
B0
30
60
60
68
30
ENDCHAR

STARTCHAR afii10104
ENCODING 247
SWIDTH 333 0
DWIDTH 5 0
BBX 6 10 0 0
BITMAP
CC
CC
00
60
B0
30
60
60
68
30
ENDCHAR

STARTCHAR afii10105
ENCODING 248
SWIDTH 323 0
DWIDTH 5 0
BBX 7 14 -1 -3
BITMAP
06
06
00
00
18
2C
0C
0C
18
18
18
30
B0
60
ENDCHAR

STARTCHAR afii10106
ENCODING 249
SWIDTH 771 0
DWIDTH 11 0
BBX 11 7 0 0
BITMAP
0700
0B00
13C0
1760
2660
A640
C380
ENDCHAR

STARTCHAR afii10107
ENCODING 250
SWIDTH 823 0
DWIDTH 12 0
BBX 12 7 0 0
BITMAP
7B80
3180
31E0
3F30
6330
6320
F1C0
ENDCHAR

STARTCHAR afii10108
ENCODING 251
SWIDTH 625 0
DWIDTH 9 0
BBX 9 11 1 0
BITMAP
1000
7E00
3000
3000
6E00
7300
6300
6300
C600
C680
C300
ENDCHAR

STARTCHAR afii10109
ENCODING 252
SWIDTH 563 0
DWIDTH 8 0
BBX 9 10 0 0
BITMAP
0600
0C00
0000
7980
3280
3400
3C00
6600
6600
F300
ENDCHAR

STARTCHAR section
ENCODING 253
SWIDTH 594 0
DWIDTH 9 0
BBX 9 14 0 -3
BITMAP
0700
0D80
1880
2C00
2400
2400
2600
3200
1200
1200
1A00
8C00
D800
7000
ENDCHAR

STARTCHAR afii10110
ENCODING 254
SWIDTH 552 0
DWIDTH 8 0
BBX 8 13 0 -3
BITMAP
1B
0E
00
32
5B
19
0D
0E
06
04
08
D0
60
ENDCHAR

STARTCHAR afii10193
ENCODING 255
SWIDTH 635 0
DWIDTH 10 0
BBX 9 9 1 -2
BITMAP
6300
B300
3300
6600
6600
6680
3B00
2000
6000
ENDCHAR
ENDFONT
